<?xml version="1.0" encoding="UTF-8" standalone="no"?>
<!DOCTYPE svg PUBLIC "-//W3C//DTD SVG 1.1//EN"
 "http://www.w3.org/Graphics/SVG/1.1/DTD/svg11.dtd">
<!-- Generated by graphviz version 2.43.0 (0)
 -->
<!-- Title: %3 Pages: 1 -->
<svg width="649pt" height="387pt"
 viewBox="0.00 0.00 649.37 387.00" xmlns="http://www.w3.org/2000/svg" xmlns:xlink="http://www.w3.org/1999/xlink">
<g id="graph0" class="graph" transform="scale(1 1) rotate(0) translate(4 383)">
<title>%3</title>
<polygon fill="white" stroke="transparent" points="-4,4 -4,-383 645.37,-383 645.37,4 -4,4"/>
<g id="clust2" class="cluster">
<title>cluster_transforms</title>
<polygon fill="none" stroke="#616161" stroke-width="0.5" stroke-dasharray="5,2" points="381.5,-8 381.5,-302.5 499.5,-302.5 499.5,-8 381.5,-8"/>
<text text-anchor="middle" x="412" y="-287.3" font-family="Times,serif" font-size="14.00" fill="#616161">Pipeline</text>
</g>
<!-- Client -->
<g id="node1" class="node">
<title>Client</title>
<path fill="lightgrey" stroke="black" d="M169.5,-379C169.5,-379 139.5,-379 139.5,-379 133.5,-379 127.5,-373 127.5,-367 127.5,-367 127.5,-348 127.5,-348 127.5,-342 133.5,-336 139.5,-336 139.5,-336 169.5,-336 169.5,-336 175.5,-336 181.5,-342 181.5,-348 181.5,-348 181.5,-367 181.5,-367 181.5,-373 175.5,-379 169.5,-379"/>
<text text-anchor="middle" x="154.5" y="-353.8" font-family="Times,serif" font-size="14.00" fill="#3c4043">Client</text>
</g>
<!-- Policy -->
<g id="node2" class="node">
<title>Policy</title>
<polygon fill="none" stroke="black" points="49,-278 0,-278 0,-206 55,-206 55,-272 49,-278"/>
<polyline fill="none" stroke="black" points="49,-278 49,-272 "/>
<polyline fill="none" stroke="black" points="55,-272 49,-272 "/>
<text text-anchor="middle" x="27.5" y="-245.8" font-family="Times,serif" font-size="14.00">Access</text>
<text text-anchor="middle" x="27.5" y="-230.8" font-family="Times,serif" font-size="14.00">Policy</text>
</g>
<!-- Client&#45;&gt;Policy -->
<g id="edge1" class="edge">
<title>Client&#45;&gt;Policy</title>
<path fill="none" stroke="black" d="M145.5,-325.87C145.5,-325.87 145.5,-270 145.5,-270 145.5,-270 90.04,-270 55.17,-270"/>
<polygon fill="black" stroke="black" points="142,-325.87 145.5,-335.87 149,-325.87 142,-325.87"/>
<text text-anchor="middle" x="74.17" y="-273.8" font-family="Times,serif" font-size="14.00"> ① AP</text>
</g>
<!-- Storage -->
<g id="node3" class="node">
<title>Storage</title>
<path fill="lightgrey" stroke="black" d="M469.5,-375.09C469.5,-377.25 456.5,-379 440.5,-379 424.5,-379 411.5,-377.25 411.5,-375.09 411.5,-375.09 411.5,-339.91 411.5,-339.91 411.5,-337.75 424.5,-336 440.5,-336 456.5,-336 469.5,-337.75 469.5,-339.91 469.5,-339.91 469.5,-375.09 469.5,-375.09"/>
<path fill="none" stroke="black" d="M469.5,-375.09C469.5,-372.93 456.5,-371.18 440.5,-371.18 424.5,-371.18 411.5,-372.93 411.5,-375.09"/>
<text text-anchor="middle" x="440.5" y="-353.8" font-family="Times,serif" font-size="14.00" fill="#3c4043">Storage</text>
</g>
<!-- Client&#45;&gt;Storage -->
<g id="edge3" class="edge">
<title>Client&#45;&gt;Storage</title>
<path fill="none" stroke="black" d="M181.66,-357C181.66,-357 401.4,-357 401.4,-357"/>
<polygon fill="black" stroke="black" points="401.4,-360.5 411.4,-357 401.4,-353.5 401.4,-360.5"/>
<text text-anchor="middle" x="291.53" y="-345.8" font-family="Times,serif" font-size="14.00">② HDRᴄ, Enc(EKᴄ, PKʟ, HDRᴄ),</text>
<text text-anchor="middle" x="291.53" y="-330.8" font-family="Times,serif" font-size="14.00">Enc(Mᴄ, EKᴄ, HDRᴄ)</text>
</g>
<!-- Ledger -->
<g id="node4" class="node">
<title>Ledger</title>
<path fill="#e2f3eb" stroke="#57bb8a" d="M170,-263.5C170,-263.5 139,-263.5 139,-263.5 133,-263.5 127,-257.5 127,-251.5 127,-251.5 127,-232.5 127,-232.5 127,-226.5 133,-220.5 139,-220.5 139,-220.5 170,-220.5 170,-220.5 176,-220.5 182,-226.5 182,-232.5 182,-232.5 182,-251.5 182,-251.5 182,-257.5 176,-263.5 170,-263.5"/>
<text text-anchor="middle" x="154.5" y="-238.3" font-family="Times,serif" font-size="14.00" fill="#3c4043">Ledger</text>
</g>
<!-- Client&#45;&gt;Ledger -->
<g id="edge2" class="edge">
<title>Client&#45;&gt;Ledger</title>
<path fill="none" stroke="black" d="M163.5,-325.78C163.5,-325.78 163.5,-263.63 163.5,-263.63"/>
<polygon fill="black" stroke="black" points="160,-325.78 163.5,-335.78 167,-325.78 160,-325.78"/>
<text text-anchor="middle" x="186" y="-286.74" font-family="Times,serif" font-size="14.00"> &#160;① PKʟ</text>
</g>
<!-- Transform1 -->
<g id="node5" class="node">
<title>Transform1</title>
<path fill="#e2f3eb" stroke="#57bb8a" d="M471,-263.5C471,-263.5 410,-263.5 410,-263.5 404,-263.5 398,-257.5 398,-251.5 398,-251.5 398,-232.5 398,-232.5 398,-226.5 404,-220.5 410,-220.5 410,-220.5 471,-220.5 471,-220.5 477,-220.5 483,-226.5 483,-232.5 483,-232.5 483,-251.5 483,-251.5 483,-257.5 477,-263.5 471,-263.5"/>
<text text-anchor="middle" x="440.5" y="-238.3" font-family="Times,serif" font-size="14.00" fill="#3c4043">Transform 1</text>
</g>
<!-- Storage&#45;&gt;Transform1 -->
<g id="edge4" class="edge">
<title>Storage&#45;&gt;Transform1</title>
<path fill="none" stroke="black" d="M440.5,-335.78C440.5,-335.78 440.5,-273.63 440.5,-273.63"/>
<polygon fill="black" stroke="black" points="444,-273.63 440.5,-263.63 437,-273.63 444,-273.63"/>
<text text-anchor="middle" x="429.5" y="-308.5" font-family="Times,serif" font-size="14.00"> ③ </text>
</g>
<!-- Ledger&#45;&gt;Transform1 -->
<g id="edge5" class="edge">
<title>Ledger&#45;&gt;Transform1</title>
<path fill="none" stroke="black" d="M192.18,-249C192.18,-249 397.57,-249 397.57,-249"/>
<polygon fill="black" stroke="black" points="192.18,-245.5 182.18,-249 192.18,-252.5 192.18,-245.5"/>
<text text-anchor="middle" x="310.92" y="-270.89" font-family="Times,serif" font-size="14.00"> ④ PK₁, N₁, HDRᴄ,</text>
<text text-anchor="middle" x="310.92" y="-255.89" font-family="Times,serif" font-size="14.00">Enc(EKᴄ, PKʟ, HDRᴄ)</text>
</g>
<!-- Ledger&#45;&gt;Transform1 -->
<g id="edge6" class="edge">
<title>Ledger&#45;&gt;Transform1</title>
<path fill="none" stroke="black" d="M182.18,-234C182.18,-234 387.57,-234 387.57,-234"/>
<polygon fill="black" stroke="black" points="387.57,-237.5 397.57,-234 387.57,-230.5 387.57,-237.5"/>
<text text-anchor="middle" x="288.17" y="-218.8" font-family="Times,serif" font-size="14.00">⑤ PKʟ, Enc(EKᴄ, PK₁, PKʟ || N₁)</text>
</g>
<!-- Transform2 -->
<g id="node6" class="node">
<title>Transform2</title>
<path fill="#e2f3eb" stroke="#57bb8a" d="M471,-148C471,-148 410,-148 410,-148 404,-148 398,-142 398,-136 398,-136 398,-117 398,-117 398,-111 404,-105 410,-105 410,-105 471,-105 471,-105 477,-105 483,-111 483,-117 483,-117 483,-136 483,-136 483,-142 477,-148 471,-148"/>
<text text-anchor="middle" x="440.5" y="-122.8" font-family="Times,serif" font-size="14.00" fill="#3c4043">Transform 2</text>
</g>
<!-- Ledger&#45;&gt;Transform2 -->
<g id="edge8" class="edge">
<title>Ledger&#45;&gt;Transform2</title>
<path fill="none" stroke="black" d="M163.67,-210.47C163.67,-210.47 163.67,-133 163.67,-133 163.67,-133 320.2,-133 397.85,-133"/>
<polygon fill="black" stroke="black" points="160.17,-210.47 163.67,-220.47 167.17,-210.47 160.17,-210.47"/>
<text text-anchor="middle" x="269.12" y="-154.89" font-family="Times,serif" font-size="14.00">⑦ PK₂, N₂, HDR₁,</text>
<text text-anchor="middle" x="269.12" y="-139.89" font-family="Times,serif" font-size="14.00">Enc(EK₁, PKʟ, HDR₁)</text>
</g>
<!-- Ledger&#45;&gt;Transform2 -->
<g id="edge9" class="edge">
<title>Ledger&#45;&gt;Transform2</title>
<path fill="none" stroke="black" d="M145.33,-220.29C145.33,-184.98 145.33,-119 145.33,-119 145.33,-119 387.9,-119 387.9,-119"/>
<polygon fill="black" stroke="black" points="387.9,-122.5 397.9,-119 387.9,-115.5 387.9,-122.5"/>
<text text-anchor="middle" x="278.55" y="-102.76" font-family="Times,serif" font-size="14.00">⑧ PKʟ, Enc(EK₁, PK₂, PKʟ || N₂)</text>
</g>
<!-- Transform1&#45;&gt;Transform2 -->
<g id="edge7" class="edge">
<title>Transform1&#45;&gt;Transform2</title>
<path fill="none" stroke="black" d="M440.5,-220.28C440.5,-220.28 440.5,-158.13 440.5,-158.13"/>
<polygon fill="black" stroke="black" points="444,-158.13 440.5,-148.13 437,-158.13 444,-158.13"/>
<text text-anchor="middle" x="543.87" y="-186.45" font-family="Times,serif" font-size="14.00">⑥ HDR₁, Enc(EK₁, PKʟ, HDR₁), &#160;</text>
<text text-anchor="middle" x="543.87" y="-171.45" font-family="Times,serif" font-size="14.00">Enc(M₁, EK₁, HDR₁)</text>
</g>
<!-- Out -->
<g id="node7" class="node">
<title>Out</title>
<text text-anchor="middle" x="440.5" y="-31.8" font-family="Times,serif" font-size="14.00" fill="#3c4043">...</text>
</g>
<!-- Transform2&#45;&gt;Out -->
<g id="edge10" class="edge">
<title>Transform2&#45;&gt;Out</title>
<path fill="none" stroke="black" d="M440.5,-104.93C440.5,-104.93 440.5,-57.18 440.5,-57.18"/>
<polygon fill="black" stroke="black" points="444,-57.18 440.5,-47.18 437,-57.18 444,-57.18"/>
<text text-anchor="middle" x="543.87" y="-71.11" font-family="Times,serif" font-size="14.00">⑨ HDR₂, Enc(EK₂, PKʟ, HDR₂), &#160;</text>
<text text-anchor="middle" x="543.87" y="-56.11" font-family="Times,serif" font-size="14.00">Enc(M₂, EK₂, HDR₂)</text>
</g>
</g>
</svg>
